<svg xmlns="http://www.w3.org/2000/svg" width="55" height="55" fill="none" viewBox="0 0 55 55">
  <circle cx="27.5" cy="27.5" r="27.5" fill="#fff"/>
  <path fill="#0081F8" d="M43.559 25.266a459.267 459.267 0 01-.021-3.427h-3.429c-.013 1.138-.021 2.28-.03 3.427-1.154.005-2.3.013-3.445.026v3.41c1.146.013 2.3.021 3.445.034.013 1.138.013 2.28.022 3.419h3.432c.005-1.139.013-2.281.022-3.428 1.154-.012 2.3-.017 3.445-.03v-3.41c-1.141-.008-2.295-.008-3.441-.02zm-22.489.017c-.004 1.362 0 2.728.004 4.09 2.3.075 4.604.041 6.904.075-1.014 5.072-7.952 6.716-11.622 3.402-3.777-2.904-3.598-9.274.327-11.972 2.745-2.175 6.644-1.64 9.39.244a43.014 43.014 0 003.06-3.149c-2.284-1.808-5.084-3.098-8.063-2.963-6.22-.207-11.936 5.206-12.038 11.39-.399 5.055 2.945 10.008 7.663 11.796 4.702 1.8 10.731.573 13.735-3.626 1.982-2.651 2.41-6.066 2.177-9.274-3.848-.03-7.693-.026-11.537-.013z"/>
</svg>
