<svg xmlns="http://www.w3.org/2000/svg" width="296" height="296" fill="none" viewBox="0 0 296 296">
  <path fill="#020076" d="M277.5 231.25h-259v18.5H37v18.5h18.5v-18.5h46.25v18.5h18.5v-18.5h46.25v18.5H185v-18.5h46.25v18.5h18.5v-18.5h27.75v-18.5zM74 148H18.5v-18.5H74V111H18.5V92.5H74A18.519 18.519 0 0192.5 111v18.5A18.518 18.518 0 0174 148z"/>
  <path fill="#020076" d="M264.087 131.627l-79.365-72.742A83.036 83.036 0 00128.464 37H18.5v18.5H111v37a18.52 18.52 0 0018.5 18.5h84.693l37.388 34.271A22.864 22.864 0 01236.134 185H18.5v18.5h217.625a41.38 41.38 0 0038.561-26.373 41.375 41.375 0 00-10.599-45.5zM129.5 92.5V55.546a64.541 64.541 0 0142.717 16.974l21.802 19.98H129.5z"/>
</svg>
