<svg xmlns="http://www.w3.org/2000/svg" width="55" height="55" fill="none" viewBox="0 0 55 55">
  <circle cx="27.5" cy="27.5" r="27.5" fill="#fff"/>
  <path fill="#0081F8" d="M44.805 18.418a.738.738 0 00-.887-.157 6.315 6.315 0 01-.945.342 6.672 6.672 0 001.123-2.167.74.74 0 00-1.138-.797 15.52 15.52 0 01-3.556 1.394 7.427 7.427 0 00-9.321-.721 7.356 7.356 0 00-3.193 6.791 17.493 17.493 0 01-12.258-6.615.764.764 0 00-.628-.277.74.74 0 00-.592.362 7.182 7.182 0 00-.816 5.565c.255.97.69 1.884 1.285 2.691a3.927 3.927 0 01-.751-.481.738.738 0 00-1.205.575 7.662 7.662 0 003.938 6.576 5.473 5.473 0 01-.952-.204.739.739 0 00-.887 1.013 8.07 8.07 0 005.6 4.592 13.002 13.002 0 01-7.798 1.609.729.729 0 00-.788.506c-.108.336.034.701.34.874A22.117 22.117 0 0022.301 43a18.735 18.735 0 0010.368-3.177c5.859-3.896 9.51-10.89 9.002-17.149a13.821 13.821 0 003.214-3.357.742.742 0 00-.08-.899z"/>
</svg>
