<svg xmlns="http://www.w3.org/2000/svg" width="55" height="55" fill="none" viewBox="0 0 55 55">
  <circle cx="27.5" cy="27.5" r="27.5" fill="#fff"/>
  <path fill="#0081F8" d="M45.24 18.767a4.176 4.176 0 00-1.149-1.905 4.573 4.573 0 00-2.006-1.112c-2.816-.743-14.099-.743-14.099-.743-4.703-.053-9.406.182-14.08.705a4.74 4.74 0 00-2.007 1.14 4.343 4.343 0 00-1.166 1.913A43.622 43.622 0 0010 27.004c-.018 2.76.226 5.518.732 8.238a4.24 4.24 0 001.162 1.903c.556.53 1.249.912 2.01 1.114 2.854.74 14.081.74 14.081.74 4.71.054 9.418-.18 14.099-.704a4.574 4.574 0 002.006-1.113 4.17 4.17 0 001.147-1.904c.518-2.716.77-5.475.752-8.24a39.856 39.856 0 00-.75-8.273v.002zM24.4 32.138V21.871l9.386 5.134-9.387 5.133z"/>
</svg>
